# xmcd
#
# Track frame offsets:
#	150
#	23602
#	45233
#	59130
#	74091
#	87723
#	110446
#	126949
#	147673
#	171141
#	192820
#	206736
#	221760
#	235458
#	256440
#	272976
#
# Disc length: 3913 seconds
#
# Revision: 1
# Processed by: cddbd v1.5.2PL0 Copyright (c) Steve Scherf et al.
# Submitted via: audiograbber 1.83.01
#
DISCID=070f4710
DTITLE=The Judds - Priddis 1084D
DYEAR=1900
DGENRE=
TTITLE0=Love Can Build A Bridge 
TTITLE1=Born To Be Blue 
TTITLE2=Girl's Night Out 
TTITLE3=Let Me Tell You About Love 
TTITLE4=Rockin' With The Rhythm Of The Rain 
TTITLE5=Young Love 
TTITLE6=Grandpa (Tell Me 'Bout The Good Old Days) 
TTITLE7=My Strongest Weakness 
TTITLE8=Love Can Build A Bridge 
TTITLE9=Born To Be Blue 
TTITLE10=Girl's Night Out 
TTITLE11=Let Me Tell You About Love 
TTITLE12=Rockin' With The Rhythm Of The Rain 
TTITLE13=Young Love 
TTITLE14=Grandpa (Tell Me 'Bout The Good Old Days) 
TTITLE15=My Strongest Weakness 
EXTD=
EXTT0=
EXTT1=
EXTT2=
EXTT3=
EXTT4=
EXTT5=
EXTT6=
EXTT7=
EXTT8=
EXTT9=
EXTT10=
EXTT11=
EXTT12=
EXTT13=
EXTT14=
EXTT15=
PLAYORDER=
